<svg width="1454" height="950" viewBox="0 0 1454 950" fill="none" xmlns="http://www.w3.org/2000/svg">
<path d="M563.682 500H567.682L564.182 504C547.515 523 527.682 540.5 504.682 556.5C481.682 572.5 456.848 586.333 430.182 598C403.848 609.667 376.682 618.667 348.682 625C320.682 631.667 293.348 635 266.682 635C229.015 635 194.348 629.167 162.682 617.5C131.015 605.833 103.515 589.5 80.1816 568.5C56.8483 547.5 38.8483 522.667 26.1816 494C13.1816 465 6.68164 433.5 6.68164 399.5C6.68164 360.167 14.515 323.833 30.1816 290.5C45.8483 256.833 67.6816 227.5 95.6816 202.5C124.015 177.5 157.015 158.167 194.682 144.5C232.682 130.5 273.848 123.5 318.182 123.5C341.182 123.5 363.848 125.5 386.182 129.5C408.515 133.5 429.182 139.167 448.182 146.5C467.515 153.833 484.182 162.333 498.182 172C512.515 181.667 522.848 192 529.182 203L526.682 204.5C520.348 193.5 510.182 183.333 496.182 174C482.515 164.667 466.182 156.5 447.182 149.5C428.182 142.167 407.515 136.5 385.182 132.5C363.182 128.5 340.848 126.5 318.182 126.5C274.182 126.5 233.348 133.333 195.682 147C158.348 160.667 125.682 179.833 97.6816 204.5C70.015 229.167 48.3483 258.167 32.6816 291.5C17.3483 324.5 9.68164 360.5 9.68164 399.5C9.68164 433.167 16.015 464.167 28.6816 492.5C41.3483 520.833 59.1816 545.333 82.1816 566C105.182 587 132.348 603.167 163.682 614.5C195.015 626.167 229.348 632 266.682 632C293.348 632 320.348 628.833 347.682 622.5C375.015 616.5 401.682 607.833 427.682 596.5C453.682 585.167 478.015 571.667 500.682 556C523.348 540.333 543.182 523 560.182 504L563.682 500ZM225.182 582.5C240.182 582.5 257.182 579.667 276.182 574C295.515 568.333 315.182 559.833 335.182 548.5C355.515 537.167 374.515 523 392.182 506C407.515 492.667 423.515 477.667 440.182 461C456.848 444 473.682 426.333 490.682 408C508.015 389.333 525.015 370.833 541.682 352.5C558.682 333.833 575.015 316.167 590.682 299.5C606.348 282.5 621.015 267.333 634.682 254C652.348 236.667 667.348 224.5 679.682 217.5C692.015 210.5 701.682 207 708.682 207C718.015 207 722.682 212.667 722.682 224C722.682 238.667 718.015 254.833 708.682 272.5C699.348 290.167 686.348 308.333 669.682 327C653.015 345.667 633.682 364.167 611.682 382.5C589.682 400.833 565.848 418.167 540.182 434.5C514.848 450.5 488.515 464.833 461.182 477.5C433.848 489.833 406.682 499.667 379.682 507C352.682 514 326.682 517.5 301.682 517.5C259.682 517.5 225.015 511.167 197.682 498.5C170.348 485.833 149.848 469 136.182 448C122.848 426.667 116.182 403 116.182 377C116.182 354.333 121.348 333.5 131.682 314.5C142.348 295.167 157.182 278.333 176.182 264C195.182 249.667 217.348 238.5 242.682 230.5C268.348 222.5 296.182 218.5 326.182 218.5C358.515 218.5 384.348 223.333 403.682 233C423.015 242.667 437.015 255.167 445.682 270.5C454.682 285.5 459.182 301.333 459.182 318C459.182 333.333 455.015 347.667 446.682 361C438.682 374.333 427.515 386 413.182 396C399.182 406 382.682 413.833 363.682 419.5C345.015 425.167 325.015 428 303.682 428C278.015 428 257.182 423.167 241.182 413.5C225.182 403.833 217.182 391 217.182 375C217.182 360.667 223.515 347.833 236.182 336.5C249.182 325.167 266.515 316.167 288.182 309.5C310.182 302.833 334.848 299.5 362.182 299.5C386.182 299.5 411.015 302.167 436.682 307.5C462.682 312.5 487.848 319.667 512.182 329C536.515 338 558.682 348.5 578.682 360.5C598.682 372.5 614.682 385.333 626.682 399L624.682 401C612.682 387.667 596.848 375.167 577.182 363.5C557.515 351.5 535.515 341 511.182 332C487.182 322.667 462.348 315.5 436.682 310.5C411.015 305.167 386.182 302.5 362.182 302.5C335.515 302.5 311.348 305.833 289.682 312.5C268.348 318.833 251.348 327.5 238.682 338.5C226.348 349.167 220.182 361.333 220.182 375C220.182 390 227.848 402.167 243.182 411.5C258.515 420.5 278.682 425 303.682 425C332.015 425 357.682 420.167 380.682 410.5C403.682 400.833 422.015 388 435.682 372C449.348 355.667 456.182 337.667 456.182 318C456.182 288.333 444.515 264.833 421.182 247.5C398.182 230.167 366.515 221.5 326.182 221.5C296.515 221.5 269.015 225.5 243.682 233.5C218.682 241.167 196.848 252 178.182 266C159.515 280 145.015 296.5 134.682 315.5C124.348 334.5 119.182 355 119.182 377C119.182 405.333 126.515 429.833 141.182 450.5C155.848 470.833 176.848 486.667 204.182 498C231.515 509 264.015 514.5 301.682 514.5C330.682 514.5 360.848 509.833 392.182 500.5C423.848 490.833 455.348 478 486.682 462C518.015 445.667 547.682 427.333 575.682 407C603.682 386.667 628.348 365.667 649.682 344C671.348 322.333 688.348 301.167 700.682 280.5C713.348 259.5 719.682 240.667 719.682 224C719.682 214.667 716.015 210 708.682 210C702.015 210 692.848 213.667 681.182 221C669.848 228.333 655.515 240.333 638.182 257C621.182 274.333 603.848 294.833 586.182 318.5C568.848 342.167 551.015 366.833 532.682 392.5C514.348 417.833 495.182 442.667 475.182 467C455.182 491 434.182 512.333 412.182 531C389.848 549.667 365.348 564.667 338.682 576C312.348 587.333 285.848 593 259.182 593C236.515 593 219.515 591.333 208.182 588C197.182 585 189.848 581.167 186.182 576.5C182.515 571.833 180.682 567.333 180.682 563C180.682 558.333 183.182 553.833 188.182 549.5C193.515 545.167 201.515 543 212.182 543C234.848 543 256.682 547 277.682 555C299.015 562.667 320.015 572.5 340.682 584.5C361.348 596.833 382.182 609.833 403.182 623.5C424.182 637.167 445.515 650 467.182 662C489.182 674.333 512.015 684.333 535.682 692C559.348 700 584.182 704 610.182 704C637.848 704 659.515 699.5 675.182 690.5C690.848 681.5 698.682 669 698.682 653C698.682 644.667 695.682 636 689.682 627L692.182 625.5C699.182 636.5 702.682 646.667 702.682 656C702.682 674.333 693.515 689 675.182 700C656.848 711 632.015 716.5 600.682 716.5C585.015 716.5 569.848 714.833 555.182 711.5C540.515 708.5 525.015 703.167 508.682 695.5C492.348 687.833 473.682 677.333 452.682 664C431.682 650.667 406.848 633.667 378.182 613C348.848 591.667 319.515 575.167 290.182 563.5C261.182 551.5 235.348 545.667 212.682 546C204.348 546 197.348 547.5 191.682 550.5C186.348 553.5 183.682 557.333 183.682 562C183.682 568.333 187.515 573.333 195.182 577C202.848 580.667 212.848 582.5 225.182 582.5ZM530.215 565V559.275C537.238 558.359 542.124 556.832 544.872 554.695C547.62 552.557 548.994 549.122 548.994 544.389V472.938C548.994 469.579 548.154 467.136 546.475 465.61C544.795 464.083 542.124 463.32 538.459 463.32H530.673V457.594L562.734 450.266H568.46V544.389C568.46 548.969 569.834 552.404 572.582 554.695C575.483 556.832 580.368 558.359 587.239 559.275V565H530.215ZM558.841 430.113C555.33 430.113 552.276 428.892 549.681 426.449C547.238 423.853 546.017 420.8 546.017 417.289C546.017 414.846 546.551 412.708 547.62 410.876C548.841 408.892 550.444 407.365 552.429 406.296C554.414 405.075 556.551 404.464 558.841 404.464C562.505 404.464 565.559 405.685 568.002 408.128C570.444 410.571 571.666 413.624 571.666 417.289C571.666 419.579 571.055 421.716 569.834 423.701C568.765 425.686 567.238 427.289 565.254 428.51C563.421 429.579 561.284 430.113 558.841 430.113ZM617.695 566.832C612.199 566.832 607.237 566.221 602.809 565C598.535 563.931 594.565 563.015 590.901 562.252C587.389 561.489 583.878 561.565 580.366 562.481L575.557 529.045H581.282C584.641 538.817 589.221 546.374 595.023 551.717C600.825 557.061 608.153 559.733 617.008 559.733C624.031 559.733 629.909 557.977 634.642 554.466C639.375 550.801 641.741 545.839 641.741 539.58C641.741 534.542 640.214 530.572 637.161 527.671C634.107 524.618 630.062 522.099 625.023 520.114C620.138 518.129 614.947 516.221 609.451 514.389C603.954 512.557 598.764 510.343 593.878 507.748C588.992 505.152 584.947 501.793 581.74 497.671C578.687 493.549 577.16 488.129 577.16 481.411C577.16 475.61 578.305 470.724 580.595 466.755C582.886 462.633 585.939 459.274 589.756 456.678C593.573 454.083 597.771 452.174 602.351 450.953C607.084 449.732 611.741 449.121 616.321 449.121C622.123 449.121 627.008 449.732 630.978 450.953C635.1 452.022 638.688 453.014 641.741 453.93C644.795 454.846 647.848 454.999 650.902 454.388L652.963 484.159H647.008C645.787 478.053 643.65 472.938 640.596 468.816C637.695 464.694 634.107 461.564 629.833 459.426C625.558 457.289 620.901 456.22 615.863 456.22C610.061 456.22 604.87 457.823 600.29 461.029C595.71 464.083 593.42 468.51 593.42 474.312C593.42 479.198 594.947 483.091 598 485.992C601.206 488.74 605.252 491.106 610.138 493.091C615.176 494.923 620.443 496.755 625.939 498.587C631.588 500.267 636.856 502.404 641.741 504.999C646.779 507.595 650.825 511.03 653.879 515.305C657.085 519.58 658.688 525.229 658.688 532.252C658.688 539.275 656.932 545.381 653.421 550.572C649.909 555.611 645.1 559.58 638.993 562.481C632.886 565.382 625.787 566.832 617.695 566.832ZM712.561 566.832C706.454 566.832 700.423 565.763 694.469 563.626C688.667 561.336 683.553 558.206 679.125 554.237C674.698 550.267 671.262 545.687 668.82 540.496L680.27 521.488C680.27 527.137 681.034 532.252 682.56 536.832C684.087 541.259 686.148 545.152 688.744 548.511C691.339 551.87 694.545 554.466 698.362 556.298C702.179 557.977 706.301 558.817 710.729 558.817C716.072 558.817 720.881 557.595 725.156 555.153C729.431 552.71 733.095 549.275 736.149 544.847C739.202 540.42 741.569 535.152 743.248 529.045C744.927 522.938 745.767 516.297 745.767 509.122C745.767 499.808 744.393 491.564 741.645 484.388C738.897 477.213 735.004 471.64 729.965 467.671C725.08 463.549 719.278 461.487 712.561 461.487C706.148 461.487 700.499 463.396 695.614 467.213C690.881 471.03 687.141 475.839 684.392 481.64C681.644 487.442 680.27 493.549 680.27 499.961L679.354 482.098C680.728 475.839 683.324 470.266 687.141 465.381C690.957 460.342 695.69 456.373 701.339 453.472C707.141 450.571 713.629 449.121 720.805 449.121C730.271 449.121 738.439 451.64 745.309 456.678C752.179 461.716 757.447 468.663 761.111 477.518C764.928 486.373 766.836 496.373 766.836 507.518C766.836 516.526 765.462 524.694 762.714 532.023C759.966 539.198 756.149 545.381 751.263 550.572C746.378 555.763 740.653 559.809 734.088 562.71C727.523 565.458 720.347 566.832 712.561 566.832ZM660.575 565.687V421.182C660.575 417.976 659.812 415.533 658.285 413.853C656.759 412.021 654.163 411.105 650.499 411.105H642.484V405.38L674.545 398.052H680.27V545.763L666.53 565.687H660.575ZM816.315 566.832C805.322 566.832 795.551 564.313 787.001 559.275C778.604 554.237 771.963 547.29 767.078 538.435C762.192 529.58 759.749 519.351 759.749 507.748C759.749 499.198 761.123 491.335 763.871 484.159C766.62 476.984 770.513 470.801 775.551 465.61C780.589 460.266 786.543 456.22 793.414 453.472C800.284 450.571 807.918 449.121 816.315 449.121C827.46 449.121 837.231 451.64 845.628 456.678C854.025 461.564 860.59 468.434 865.323 477.289C870.056 485.992 872.422 496.144 872.422 507.748C872.422 516.45 871.048 524.465 868.3 531.794C865.552 538.969 861.659 545.229 856.62 550.572C851.735 555.763 845.857 559.809 838.987 562.71C832.116 565.458 824.559 566.832 816.315 566.832ZM816.315 559.275C820.437 559.275 824.254 558.511 827.765 556.985C831.429 555.458 834.636 553.244 837.384 550.343C840.132 547.29 842.498 543.702 844.483 539.58C846.468 535.305 847.918 530.496 848.834 525.152C849.903 519.809 850.437 514.007 850.437 507.748C850.437 497.366 849.063 488.358 846.315 480.724C843.567 473.091 839.597 467.213 834.407 463.091C829.368 458.816 823.338 456.678 816.315 456.678C812.04 456.678 808.07 457.442 804.406 458.968C800.895 460.495 797.689 462.785 794.788 465.839C792.04 468.739 789.673 472.327 787.688 476.602C785.704 480.724 784.177 485.457 783.108 490.801C782.192 495.992 781.734 501.641 781.734 507.748C781.734 518.129 783.108 527.213 785.856 535C788.757 542.786 792.727 548.817 797.765 553.091C802.956 557.214 809.139 559.275 816.315 559.275ZM894.244 475.228C897.603 466.831 902.87 460.419 910.046 455.991C917.222 451.411 925.161 449.121 933.863 449.121C941.191 449.121 947.527 450.724 952.871 453.93C958.367 456.984 962.566 461.411 965.466 467.213C968.52 473.014 970.047 479.808 970.047 487.595V545.076C970.047 549.198 971.344 552.404 973.94 554.695C976.535 556.832 981.497 558.359 988.825 559.275V565H932.489V559.275C939.359 558.359 944.016 556.908 946.459 554.924C949.054 552.786 950.352 549.504 950.352 545.076V489.198C950.352 480.801 948.214 474.312 943.939 469.732C939.665 464.999 933.329 462.633 924.932 462.633C920.351 462.633 915.695 463.93 910.962 466.526C906.229 469.121 902.26 472.785 899.054 477.518C895.847 482.098 894.244 487.671 894.244 494.236V545.076C894.244 549.504 895.542 552.786 898.137 554.924C900.886 556.908 905.618 558.359 912.336 559.275V565H856V559.275C863.328 558.359 868.213 556.908 870.656 554.924C873.252 552.786 874.549 549.504 874.549 545.076V472.938C874.549 469.732 873.71 467.365 872.03 465.839C870.504 464.159 867.908 463.32 864.244 463.32H856.458V457.594L888.519 450.266H894.244V475.228Z" fill="#1B1B8F"/>
<circle cx="768.697" cy="504.252" r="0.44528" fill="white"/>
<circle cx="766.916" cy="505.588" r="0.44528" fill="white"/>
<circle cx="763.8" cy="502.471" r="0.44528" fill="white"/>
<path d="M1015.31 565.387C1010.76 565.387 1007.19 564.168 1004.59 561.731C1001.99 559.375 1000.69 556.532 1000.69 553.201C1000.69 549.87 1001.99 547.027 1004.59 544.671C1007.19 542.234 1010.76 541.015 1015.31 541.015H1091.84C1096.39 541.015 1099.96 542.234 1102.56 544.671C1105.16 547.027 1106.46 549.87 1106.46 553.201C1106.46 556.532 1105.16 559.375 1102.56 561.731C1099.96 564.168 1096.39 565.387 1091.84 565.387H1015.31ZM1015.31 549.789C1010.76 549.789 1007.19 548.611 1004.59 546.255C1001.99 543.818 1000.69 540.934 1000.69 537.603C1000.69 534.273 1001.99 531.429 1004.59 529.073C1007.19 526.636 1010.76 525.418 1015.31 525.418H1029.45C1033.99 525.418 1037.57 526.636 1040.17 529.073C1042.77 531.429 1044.07 534.273 1044.07 537.603C1044.07 540.934 1042.77 543.818 1040.17 546.255C1037.57 548.611 1033.99 549.789 1029.45 549.789H1015.31ZM1030.91 534.191C1026.36 534.191 1022.78 533.013 1020.18 530.657C1017.58 528.22 1016.28 525.336 1016.28 522.005C1016.28 518.675 1017.58 515.831 1020.18 513.475C1022.78 511.038 1026.36 509.82 1030.91 509.82H1045.04C1049.59 509.82 1053.17 511.038 1055.77 513.475C1058.37 515.831 1059.67 518.675 1059.67 522.005C1059.67 525.336 1058.37 528.22 1055.77 530.657C1053.17 533.013 1049.59 534.191 1045.04 534.191H1030.91ZM1062.1 518.593C1057.55 518.593 1053.98 517.416 1051.38 515.06C1048.78 512.622 1047.48 509.738 1047.48 506.408C1047.48 503.077 1048.78 500.234 1051.38 497.878C1053.98 495.44 1057.55 494.222 1062.1 494.222H1076.24C1080.79 494.222 1084.36 495.44 1086.96 497.878C1089.56 500.234 1090.86 503.077 1090.86 506.408C1090.86 509.738 1089.56 512.622 1086.96 515.06C1084.36 517.416 1080.79 518.593 1076.24 518.593H1062.1ZM1077.7 502.996C1073.15 502.996 1069.58 501.818 1066.98 499.462C1064.38 497.025 1063.08 494.141 1063.08 490.81C1063.08 487.479 1064.38 484.636 1066.98 482.28C1069.58 479.843 1073.15 478.624 1077.7 478.624H1091.84C1096.39 478.624 1099.96 479.843 1102.56 482.28C1105.16 484.636 1106.46 487.479 1106.46 490.81C1106.46 494.141 1105.16 497.025 1102.56 499.462C1099.96 501.818 1096.39 502.996 1091.84 502.996H1077.7ZM1015.31 487.398C1010.76 487.398 1007.19 486.22 1004.59 483.864C1001.99 481.427 1000.69 478.543 1000.69 475.212C1000.69 471.881 1001.99 469.038 1004.59 466.682C1007.19 464.245 1010.76 463.026 1015.31 463.026H1029.45C1033.99 463.026 1037.57 464.245 1040.17 466.682C1042.77 469.038 1044.07 471.881 1044.07 475.212C1044.07 478.543 1042.77 481.427 1040.17 483.864C1037.57 486.22 1033.99 487.398 1029.45 487.398H1015.31ZM1077.7 487.398C1073.15 487.398 1069.58 486.22 1066.98 483.864C1064.38 481.427 1063.08 478.543 1063.08 475.212C1063.08 471.881 1064.38 469.038 1066.98 466.682C1069.58 464.245 1073.15 463.026 1077.7 463.026H1091.84C1096.39 463.026 1099.96 464.245 1102.56 466.682C1105.16 469.038 1106.46 471.881 1106.46 475.212C1106.46 478.543 1105.16 481.427 1102.56 483.864C1099.96 486.22 1096.39 487.398 1091.84 487.398H1077.7ZM1030.91 471.8C1026.36 471.8 1022.78 470.622 1020.18 468.266C1017.58 465.829 1016.28 462.945 1016.28 459.614C1016.28 456.283 1017.58 453.44 1020.18 451.084C1022.78 448.647 1026.36 447.428 1030.91 447.428H1076.24C1080.79 447.428 1084.36 448.647 1086.96 451.084C1089.56 453.44 1090.86 456.283 1090.86 459.614C1090.86 462.945 1089.56 465.829 1086.96 468.266C1084.36 470.622 1080.79 471.8 1076.24 471.8H1030.91ZM1143.21 565.387C1138.66 565.387 1135.09 564.168 1132.49 561.731C1129.89 559.375 1128.59 556.532 1128.59 553.201C1128.59 549.87 1129.89 547.027 1132.49 544.671C1135.09 542.234 1138.66 541.015 1143.21 541.015H1188.54C1193.09 541.015 1196.67 542.234 1199.27 544.671C1201.87 547.027 1203.17 549.87 1203.17 553.201C1203.17 556.532 1201.87 559.375 1199.27 561.731C1196.67 564.168 1193.09 565.387 1188.54 565.387H1143.21ZM1127.61 549.789C1123.06 549.789 1119.49 548.611 1116.89 546.255C1114.29 543.818 1112.99 540.934 1112.99 537.603C1112.99 534.273 1114.29 531.429 1116.89 529.073C1119.49 526.636 1123.06 525.418 1127.61 525.418H1141.75C1146.3 525.418 1149.87 526.636 1152.47 529.073C1155.07 531.429 1156.37 534.273 1156.37 537.603C1156.37 540.934 1155.07 543.818 1152.47 546.255C1149.87 548.611 1146.3 549.789 1141.75 549.789H1127.61ZM1190 549.789C1185.46 549.789 1181.88 548.611 1179.28 546.255C1176.68 543.818 1175.38 540.934 1175.38 537.603C1175.38 534.273 1176.68 531.429 1179.28 529.073C1181.88 526.636 1185.46 525.418 1190 525.418H1204.14C1208.69 525.418 1212.26 526.636 1214.86 529.073C1217.46 531.429 1218.76 534.273 1218.76 537.603C1218.76 540.934 1217.46 543.818 1214.86 546.255C1212.26 548.611 1208.69 549.789 1204.14 549.789H1190ZM1127.61 534.191C1123.06 534.191 1119.49 533.013 1116.89 530.657C1114.29 528.22 1112.99 525.336 1112.99 522.005C1112.99 518.675 1114.29 515.831 1116.89 513.475C1119.49 511.038 1123.06 509.82 1127.61 509.82H1141.75C1146.3 509.82 1149.87 511.038 1152.47 513.475C1155.07 515.831 1156.37 518.675 1156.37 522.005C1156.37 525.336 1155.07 528.22 1152.47 530.657C1149.87 533.013 1146.3 534.191 1141.75 534.191H1127.61ZM1190 534.191C1185.46 534.191 1181.88 533.013 1179.28 530.657C1176.68 528.22 1175.38 525.336 1175.38 522.005C1175.38 518.675 1176.68 515.831 1179.28 513.475C1181.88 511.038 1185.46 509.82 1190 509.82H1204.14C1208.69 509.82 1212.26 511.038 1214.86 513.475C1217.46 515.831 1218.76 518.675 1218.76 522.005C1218.76 525.336 1217.46 528.22 1214.86 530.657C1212.26 533.013 1208.69 534.191 1204.14 534.191H1190ZM1127.61 518.593C1123.06 518.593 1119.49 517.416 1116.89 515.06C1114.29 512.622 1112.99 509.738 1112.99 506.408C1112.99 503.077 1114.29 500.234 1116.89 497.878C1119.49 495.44 1123.06 494.222 1127.61 494.222H1157.35C1161.9 494.222 1165.47 495.44 1168.07 497.878C1170.67 500.234 1171.97 503.077 1171.97 506.408C1171.97 509.738 1170.67 512.622 1168.07 515.06C1165.47 517.416 1161.9 518.593 1157.35 518.593H1127.61ZM1190 518.593C1185.46 518.593 1181.88 517.416 1179.28 515.06C1176.68 512.622 1175.38 509.738 1175.38 506.408C1175.38 503.077 1176.68 500.234 1179.28 497.878C1181.88 495.44 1185.46 494.222 1190 494.222H1204.14C1208.69 494.222 1212.26 495.44 1214.86 497.878C1217.46 500.234 1218.76 503.077 1218.76 506.408C1218.76 509.738 1217.46 512.622 1214.86 515.06C1212.26 517.416 1208.69 518.593 1204.14 518.593H1190ZM1127.61 502.996C1123.06 502.996 1119.49 501.818 1116.89 499.462C1114.29 497.025 1112.99 494.141 1112.99 490.81C1112.99 487.479 1114.29 484.636 1116.89 482.28C1119.49 479.843 1123.06 478.624 1127.61 478.624H1141.75C1146.3 478.624 1149.87 479.843 1152.47 482.28C1155.07 484.636 1156.37 487.479 1156.37 490.81C1156.37 494.141 1155.07 497.025 1152.47 499.462C1149.87 501.818 1146.3 502.996 1141.75 502.996H1127.61ZM1174.41 502.996C1169.86 502.996 1166.28 501.818 1163.68 499.462C1161.08 497.025 1159.78 494.141 1159.78 490.81C1159.78 487.479 1161.08 484.636 1163.68 482.28C1166.28 479.843 1169.86 478.624 1174.41 478.624H1204.14C1208.69 478.624 1212.26 479.843 1214.86 482.28C1217.46 484.636 1218.76 487.479 1218.76 490.81C1218.76 494.141 1217.46 497.025 1214.86 499.462C1212.26 501.818 1208.69 502.996 1204.14 502.996H1174.41ZM1127.61 487.398C1123.06 487.398 1119.49 486.22 1116.89 483.864C1114.29 481.427 1112.99 478.543 1112.99 475.212C1112.99 471.881 1114.29 469.038 1116.89 466.682C1119.49 464.245 1123.06 463.026 1127.61 463.026H1141.75C1146.3 463.026 1149.87 464.245 1152.47 466.682C1155.07 469.038 1156.37 471.881 1156.37 475.212C1156.37 478.543 1155.07 481.427 1152.47 483.864C1149.87 486.22 1146.3 487.398 1141.75 487.398H1127.61ZM1190 487.398C1185.46 487.398 1181.88 486.22 1179.28 483.864C1176.68 481.427 1175.38 478.543 1175.38 475.212C1175.38 471.881 1176.68 469.038 1179.28 466.682C1181.88 464.245 1185.46 463.026 1190 463.026H1204.14C1208.69 463.026 1212.26 464.245 1214.86 466.682C1217.46 469.038 1218.76 471.881 1218.76 475.212C1218.76 478.543 1217.46 481.427 1214.86 483.864C1212.26 486.22 1208.69 487.398 1204.14 487.398H1190ZM1143.21 471.8C1138.66 471.8 1135.09 470.622 1132.49 468.266C1129.89 465.829 1128.59 462.945 1128.59 459.614C1128.59 456.283 1129.89 453.44 1132.49 451.084C1135.09 448.647 1138.66 447.428 1143.21 447.428H1188.54C1193.09 447.428 1196.67 448.647 1199.27 451.084C1201.87 453.44 1203.17 456.283 1203.17 459.614C1203.17 462.945 1201.87 465.829 1199.27 468.266C1196.67 470.622 1193.09 471.8 1188.54 471.8H1143.21ZM1239.92 565.387C1235.37 565.387 1231.79 564.168 1229.19 561.731C1226.59 559.375 1225.29 556.532 1225.29 553.201C1225.29 549.87 1226.59 547.027 1229.19 544.671C1231.79 542.234 1235.37 541.015 1239.92 541.015H1316.44C1320.99 541.015 1324.57 542.234 1327.17 544.671C1329.77 547.027 1331.07 549.87 1331.07 553.201C1331.07 556.532 1329.77 559.375 1327.17 561.731C1324.57 564.168 1320.99 565.387 1316.44 565.387H1239.92ZM1239.92 549.789C1235.37 549.789 1231.79 548.611 1229.19 546.255C1226.59 543.818 1225.29 540.934 1225.29 537.603C1225.29 534.273 1226.59 531.429 1229.19 529.073C1231.79 526.636 1235.37 525.418 1239.92 525.418H1254.05C1258.6 525.418 1262.18 526.636 1264.78 529.073C1267.38 531.429 1268.68 534.273 1268.68 537.603C1268.68 540.934 1267.38 543.818 1264.78 546.255C1262.18 548.611 1258.6 549.789 1254.05 549.789H1239.92ZM1255.52 534.191C1250.97 534.191 1247.39 533.013 1244.79 530.657C1242.19 528.22 1240.89 525.336 1240.89 522.005C1240.89 518.675 1242.19 515.831 1244.79 513.475C1247.39 511.038 1250.97 509.82 1255.52 509.82H1269.65C1274.2 509.82 1277.78 511.038 1280.37 513.475C1282.97 515.831 1284.27 518.675 1284.27 522.005C1284.27 525.336 1282.97 528.22 1280.37 530.657C1277.78 533.013 1274.2 534.191 1269.65 534.191H1255.52ZM1286.71 518.593C1282.16 518.593 1278.59 517.416 1275.99 515.06C1273.39 512.622 1272.09 509.738 1272.09 506.408C1272.09 503.077 1273.39 500.234 1275.99 497.878C1278.59 495.44 1282.16 494.222 1286.71 494.222H1300.85C1305.4 494.222 1308.97 495.44 1311.57 497.878C1314.17 500.234 1315.47 503.077 1315.47 506.408C1315.47 509.738 1314.17 512.622 1311.57 515.06C1308.97 517.416 1305.4 518.593 1300.85 518.593H1286.71ZM1302.31 502.996C1297.76 502.996 1294.19 501.818 1291.59 499.462C1288.99 497.025 1287.69 494.141 1287.69 490.81C1287.69 487.479 1288.99 484.636 1291.59 482.28C1294.19 479.843 1297.76 478.624 1302.31 478.624H1316.44C1320.99 478.624 1324.57 479.843 1327.17 482.28C1329.77 484.636 1331.07 487.479 1331.07 490.81C1331.07 494.141 1329.77 497.025 1327.17 499.462C1324.57 501.818 1320.99 502.996 1316.44 502.996H1302.31ZM1239.92 487.398C1235.37 487.398 1231.79 486.22 1229.19 483.864C1226.59 481.427 1225.29 478.543 1225.29 475.212C1225.29 471.881 1226.59 469.038 1229.19 466.682C1231.79 464.245 1235.37 463.026 1239.92 463.026H1254.05C1258.6 463.026 1262.18 464.245 1264.78 466.682C1267.38 469.038 1268.68 471.881 1268.68 475.212C1268.68 478.543 1267.38 481.427 1264.78 483.864C1262.18 486.22 1258.6 487.398 1254.05 487.398H1239.92ZM1302.31 487.398C1297.76 487.398 1294.19 486.22 1291.59 483.864C1288.99 481.427 1287.69 478.543 1287.69 475.212C1287.69 471.881 1288.99 469.038 1291.59 466.682C1294.19 464.245 1297.76 463.026 1302.31 463.026H1316.44C1320.99 463.026 1324.57 464.245 1327.17 466.682C1329.77 469.038 1331.07 471.881 1331.07 475.212C1331.07 478.543 1329.77 481.427 1327.17 483.864C1324.57 486.22 1320.99 487.398 1316.44 487.398H1302.31ZM1255.52 471.8C1250.97 471.8 1247.39 470.622 1244.79 468.266C1242.19 465.829 1240.89 462.945 1240.89 459.614C1240.89 456.283 1242.19 453.44 1244.79 451.084C1247.39 448.647 1250.97 447.428 1255.52 447.428H1300.85C1305.4 447.428 1308.97 448.647 1311.57 451.084C1314.17 453.44 1315.47 456.283 1315.47 459.614C1315.47 462.945 1314.17 465.829 1311.57 468.266C1308.97 470.622 1305.4 471.8 1300.85 471.8H1255.52ZM1367.82 565.387C1363.27 565.387 1359.7 564.168 1357.1 561.731C1354.5 559.375 1353.2 556.532 1353.2 553.201C1353.2 549.87 1354.5 547.027 1357.1 544.671C1359.7 542.234 1363.27 541.015 1367.82 541.015H1413.15C1417.7 541.015 1421.27 542.234 1423.87 544.671C1426.47 547.027 1427.77 549.87 1427.77 553.201C1427.77 556.532 1426.47 559.375 1423.87 561.731C1421.27 564.168 1417.7 565.387 1413.15 565.387H1367.82ZM1352.22 549.789C1347.67 549.789 1344.1 548.611 1341.5 546.255C1338.9 543.818 1337.6 540.934 1337.6 537.603C1337.6 534.273 1338.9 531.429 1341.5 529.073C1344.1 526.636 1347.67 525.418 1352.22 525.418H1366.36C1370.91 525.418 1374.48 526.636 1377.08 529.073C1379.68 531.429 1380.98 534.273 1380.98 537.603C1380.98 540.934 1379.68 543.818 1377.08 546.255C1374.48 548.611 1370.91 549.789 1366.36 549.789H1352.22ZM1414.61 549.789C1410.06 549.789 1406.49 548.611 1403.89 546.255C1401.29 543.818 1399.99 540.934 1399.99 537.603C1399.99 534.273 1401.29 531.429 1403.89 529.073C1406.49 526.636 1410.06 525.418 1414.61 525.418H1428.75C1433.3 525.418 1436.87 526.636 1439.47 529.073C1442.07 531.429 1443.37 534.273 1443.37 537.603C1443.37 540.934 1442.07 543.818 1439.47 546.255C1436.87 548.611 1433.3 549.789 1428.75 549.789H1414.61ZM1352.22 534.191C1347.67 534.191 1344.1 533.013 1341.5 530.657C1338.9 528.22 1337.6 525.336 1337.6 522.005C1337.6 518.675 1338.9 515.831 1341.5 513.475C1344.1 511.038 1347.67 509.82 1352.22 509.82H1366.36C1370.91 509.82 1374.48 511.038 1377.08 513.475C1379.68 515.831 1380.98 518.675 1380.98 522.005C1380.98 525.336 1379.68 528.22 1377.08 530.657C1374.48 533.013 1370.91 534.191 1366.36 534.191H1352.22ZM1414.61 534.191C1410.06 534.191 1406.49 533.013 1403.89 530.657C1401.29 528.22 1399.99 525.336 1399.99 522.005C1399.99 518.675 1401.29 515.831 1403.89 513.475C1406.49 511.038 1410.06 509.82 1414.61 509.82H1428.75C1433.3 509.82 1436.87 511.038 1439.47 513.475C1442.07 515.831 1443.37 518.675 1443.37 522.005C1443.37 525.336 1442.07 528.22 1439.47 530.657C1436.87 533.013 1433.3 534.191 1428.75 534.191H1414.61ZM1352.22 518.593C1347.67 518.593 1344.1 517.416 1341.5 515.06C1338.9 512.622 1337.6 509.738 1337.6 506.408C1337.6 503.077 1338.9 500.234 1341.5 497.878C1344.1 495.44 1347.67 494.222 1352.22 494.222H1413.15C1417.7 494.222 1421.27 495.44 1423.87 497.878C1426.47 500.234 1427.77 503.077 1427.77 506.408C1427.77 509.738 1426.47 512.622 1423.87 515.06C1421.27 517.416 1417.7 518.593 1413.15 518.593H1352.22ZM1352.22 502.996C1347.67 502.996 1344.1 501.818 1341.5 499.462C1338.9 497.025 1337.6 494.141 1337.6 490.81C1337.6 487.479 1338.9 484.636 1341.5 482.28C1344.1 479.843 1347.67 478.624 1352.22 478.624H1366.36C1370.91 478.624 1374.48 479.843 1377.08 482.28C1379.68 484.636 1380.98 487.479 1380.98 490.81C1380.98 494.141 1379.68 497.025 1377.08 499.462C1374.48 501.818 1370.91 502.996 1366.36 502.996H1352.22ZM1352.22 487.398C1347.67 487.398 1344.1 486.22 1341.5 483.864C1338.9 481.427 1337.6 478.543 1337.6 475.212C1337.6 471.881 1338.9 469.038 1341.5 466.682C1344.1 464.245 1347.67 463.026 1352.22 463.026H1366.36C1370.91 463.026 1374.48 464.245 1377.08 466.682C1379.68 469.038 1380.98 471.881 1380.98 475.212C1380.98 478.543 1379.68 481.427 1377.08 483.864C1374.48 486.22 1370.91 487.398 1366.36 487.398H1352.22ZM1414.61 487.398C1410.06 487.398 1406.49 486.22 1403.89 483.864C1401.29 481.427 1399.99 478.543 1399.99 475.212C1399.99 471.881 1401.29 469.038 1403.89 466.682C1406.49 464.245 1410.06 463.026 1414.61 463.026H1428.75C1433.3 463.026 1436.87 464.245 1439.47 466.682C1442.07 469.038 1443.37 471.881 1443.37 475.212C1443.37 478.543 1442.07 481.427 1439.47 483.864C1436.87 486.22 1433.3 487.398 1428.75 487.398H1414.61ZM1367.82 471.8C1363.27 471.8 1359.7 470.622 1357.1 468.266C1354.5 465.829 1353.2 462.945 1353.2 459.614C1353.2 456.283 1354.5 453.44 1357.1 451.084C1359.7 448.647 1363.27 447.428 1367.82 447.428H1413.15C1417.7 447.428 1421.27 448.647 1423.87 451.084C1426.47 453.44 1427.77 456.283 1427.77 459.614C1427.77 462.945 1426.47 465.829 1423.87 468.266C1421.27 470.622 1417.7 471.8 1413.15 471.8H1367.82Z" fill="#1B1B8F"/>
<path d="M728.151 401.62V406.704C725.859 403.039 722.301 400.793 717.898 400.793C708.489 400.793 703.182 407.709 703.182 416.99C703.182 426.33 708.549 433.483 718.019 433.483C722.421 433.483 725.92 431.236 728.151 427.571V432.655H735.509V401.62H728.151ZM719.466 427.335C714.098 427.335 711.022 422.428 711.022 416.99C711.022 411.67 714.038 407 719.587 407C724.171 407 728.091 410.251 728.091 416.872C728.091 423.374 724.351 427.335 719.466 427.335Z" fill="#1B1B8F"/>
<path d="M741.846 401.623V432.658H749.686V401.623H741.846Z" fill="#1B1B8F"/>
<path d="M764.14 409.305V401.62H756.299V432.654H764.14V414.92C764.14 410.369 767.336 408.536 770.352 408.536C772.101 408.536 773.91 409.009 774.875 409.364V401.088C769.749 401.088 765.527 404.103 764.14 409.305Z" fill="#1B1B8F"/>
<path d="M776.783 411.08C776.783 420.716 783.538 427.573 793.249 427.573C803.019 427.573 809.715 420.716 809.715 411.08C809.715 401.622 803.019 394.883 793.249 394.883C783.538 394.883 776.783 401.622 776.783 411.08ZM801.873 411.08C801.873 417.11 798.556 421.425 793.249 421.425C787.881 421.425 784.624 417.11 784.624 411.08C784.624 405.287 787.881 401.09 793.249 401.09C798.556 401.09 801.873 405.287 801.873 411.08Z" fill="#1B1B8F"/>
<path d="M831.594 400.793C827.01 400.793 823.27 403.453 821.28 407.709V401.62H813.439V443H821.28V427.098C823.512 430.941 827.673 433.483 832.076 433.483C840.641 433.483 846.612 426.921 846.612 417.522C846.612 407.65 840.399 400.793 831.594 400.793ZM830.206 427.69C824.959 427.69 821.28 423.374 821.28 417.226C821.28 410.901 824.959 406.468 830.206 406.468C835.212 406.468 838.771 411.019 838.771 417.463C838.771 423.492 835.212 427.69 830.206 427.69Z" fill="#1B1B8F"/>
<path d="M849.111 421.896C849.111 427.512 854.178 433.483 864.31 433.483C874.503 433.483 878.182 427.63 878.182 423.079C878.182 416.103 869.799 414.862 864.19 413.798C860.39 413.148 857.977 412.615 857.977 410.487C857.977 408.064 860.691 406.527 863.586 406.527C867.507 406.527 869.015 409.187 869.135 412.024H876.976C876.976 407.413 873.659 400.793 863.406 400.793C854.539 400.793 850.137 405.699 850.137 410.96C850.137 418.468 858.641 419.236 864.25 420.3C867.507 420.891 870.341 421.601 870.341 423.906C870.341 426.212 867.567 427.749 864.612 427.749C861.837 427.749 856.952 426.212 856.952 421.896H849.111Z" fill="#1B1B8F"/>
<path d="M745.906 397.838C742.686 397.838 740.377 395.574 740.377 392.487C740.377 389.401 742.686 387 745.906 387C748.985 387 751.434 389.401 751.434 392.487C751.434 395.574 748.985 397.838 745.906 397.838Z" fill="#1B1B8F"/>
</svg>
