<svg width="175" height="56" viewBox="0 0 175 56" fill="none" xmlns="http://www.w3.org/2000/svg">
<path d="M24.9696 14.6203V19.7041C22.6777 16.039 19.1192 13.7927 14.7164 13.7927C5.30754 13.7927 0 20.709 0 29.9899C0 39.3299 5.36785 46.4827 14.837 46.4827C19.2398 46.4827 22.738 44.2363 24.9696 40.5713V45.6551H32.3278V14.6203H24.9696ZM16.2845 40.3348C10.9166 40.3348 7.84069 35.4284 7.84069 29.9899C7.84069 24.6697 10.8563 19.9997 16.4051 19.9997C20.9889 19.9997 24.9093 23.2509 24.9093 29.8717C24.9093 36.3742 21.1699 40.3348 16.2845 40.3348Z" fill="#1B1B8F"/>
<path d="M38.6641 14.623V45.6578H46.5047V14.623H38.6641Z" fill="#1B1B8F"/>
<path d="M60.9579 22.3045V14.6197H53.1172V45.6544H60.9579V27.9203C60.9579 23.3685 64.1545 21.536 67.1701 21.536C68.9192 21.536 70.7286 22.0089 71.6936 22.3636V14.0876C66.567 14.0876 62.3451 17.1025 60.9579 22.3045Z" fill="#1B1B8F"/>
<path d="M73.6016 24.08C73.6016 33.7156 80.3566 40.5728 90.067 40.5728C99.8377 40.5728 106.533 33.7156 106.533 24.08C106.533 14.6218 99.8377 7.88281 90.067 7.88281C80.3566 7.88281 73.6016 14.6218 73.6016 24.08ZM98.6918 24.08C98.6918 30.1096 95.3745 34.4249 90.067 34.4249C84.6991 34.4249 81.4422 30.1096 81.4422 24.08C81.4422 18.2868 84.6991 14.0898 90.067 14.0898C95.3745 14.0898 98.6918 18.2868 98.6918 24.08Z" fill="#1B1B8F"/>
<path d="M128.412 13.7927C123.828 13.7927 120.089 16.4528 118.099 20.709V14.6203H110.258V56H118.099V40.0984C120.33 43.9408 124.492 46.4827 128.895 46.4827C137.459 46.4827 143.43 39.921 143.43 30.5219C143.43 20.6499 137.218 13.7927 128.412 13.7927ZM127.025 40.6895C121.778 40.6895 118.099 36.3742 118.099 30.2264C118.099 23.9012 121.778 19.4677 127.025 19.4677C132.031 19.4677 135.589 24.0194 135.589 30.4628C135.589 36.4924 132.031 40.6895 127.025 40.6895Z" fill="#1B1B8F"/>
<path d="M145.93 34.8964C145.93 40.5122 150.996 46.4827 161.129 46.4827C171.321 46.4827 175.001 40.6304 175.001 36.0786C175.001 29.1032 166.617 27.8618 161.008 26.7978C157.208 26.1475 154.796 25.6155 154.796 23.4874C154.796 21.0637 157.51 19.5268 160.405 19.5268C164.325 19.5268 165.833 22.1869 165.954 25.0243H173.794C173.794 20.4135 170.477 13.7927 160.224 13.7927C151.358 13.7927 146.955 18.6992 146.955 23.9603C146.955 31.4678 155.459 32.2362 161.068 33.3003C164.325 33.8914 167.16 34.6008 167.16 36.9062C167.16 39.2117 164.385 40.7486 161.43 40.7486C158.656 40.7486 153.77 39.2117 153.77 34.8964H145.93Z" fill="#1B1B8F"/>
<path d="M42.724 10.8375C39.5048 10.8375 37.1953 8.574 37.1953 5.48736C37.1953 2.40072 39.5048 0 42.724 0C45.8033 0 48.2527 2.40072 48.2527 5.48736C48.2527 8.574 45.8033 10.8375 42.724 10.8375Z" fill="#1B1B8F"/>
</svg>
